<svg width="36" height="36" viewBox="0 0 36 36" fill="none" xmlns="http://www.w3.org/2000/svg">
<path fill-rule="evenodd" clip-rule="evenodd" d="M18 3.6C15.4814 3.59954 13.0067 4.25968 10.8229 5.51453C8.63913 6.76938 6.82267 8.57505 5.55484 10.7513C4.28701 12.9276 3.61215 15.3983 3.59762 17.9169C3.58308 20.4355 4.22938 22.9138 5.47201 25.1046C6.31191 24.013 7.39159 23.1292 8.62756 22.5216C9.86354 21.9139 11.2227 21.5986 12.6 21.6H23.4C24.7773 21.5986 26.1365 21.9139 27.3724 22.5216C28.6084 23.1292 29.6881 24.013 30.528 25.1046C31.7706 22.9138 32.4169 20.4355 32.4024 17.9169C32.3879 15.3983 31.713 12.9276 30.4452 10.7513C29.1773 8.57505 27.3609 6.76938 25.1771 5.51453C22.9933 4.25968 20.5186 3.59954 18 3.6ZM32.2974 28.9368C32.523 28.6428 32.739 28.3416 32.9454 28.0332C34.9409 25.068 36.0047 21.5741 36 18C36 8.0586 27.9414 0 18 0C8.05861 0 1.84598e-05 8.0586 1.84598e-05 18C-0.00565392 21.9542 1.29609 25.7993 3.70262 28.9368L3.69361 28.9692L4.33261 29.7126C6.02081 31.6863 8.1169 33.2705 10.4764 34.3559C12.8359 35.4414 15.4028 36.0023 18 36C18.3888 36 18.7752 35.988 19.1592 35.964C22.4071 35.7592 25.5378 34.6733 28.215 32.823C29.4953 31.9397 30.6558 30.8942 31.6674 29.7126L32.3064 28.9692L32.2974 28.9368ZM18 7.2C16.5678 7.2 15.1943 7.76893 14.1816 8.78162C13.1689 9.79432 12.6 11.1678 12.6 12.6C12.6 14.0322 13.1689 15.4057 14.1816 16.4184C15.1943 17.4311 16.5678 18 18 18C19.4322 18 20.8057 17.4311 21.8184 16.4184C22.8311 15.4057 23.4 14.0322 23.4 12.6C23.4 11.1678 22.8311 9.79432 21.8184 8.78162C20.8057 7.76893 19.4322 7.2 18 7.2Z" fill="#211842"/>
</svg>
