<svg width="36" height="36" viewBox="0 0 36 36" fill="none" xmlns="http://www.w3.org/2000/svg">
<path opacity="0.1" fill-rule="evenodd" clip-rule="evenodd" d="M0 17.9453C0 8.0344 8.0344 0 17.9453 0C27.8563 0 35.8907 8.0344 35.8907 17.9453C35.8907 27.8563 27.8563 35.8907 17.9453 35.8907C8.0344 35.8907 0 27.8563 0 17.9453Z" fill="#211842"/>
<path fill-rule="evenodd" clip-rule="evenodd" d="M17.9467 8.375C15.3474 8.375 15.0212 8.38637 14.0003 8.43282C12.9814 8.47948 12.2859 8.64079 11.6774 8.87747C11.0479 9.12193 10.5139 9.44894 9.98192 9.98112C9.44954 10.5131 9.12253 11.0471 8.87728 11.6764C8.64 12.2851 8.47849 12.9808 8.43263 13.9993C8.38696 15.0202 8.375 15.3466 8.375 17.9459C8.375 20.5452 8.38656 20.8705 8.43282 21.8914C8.47968 22.9103 8.64099 23.6058 8.87747 24.2143C9.12213 24.8438 9.44914 25.3778 9.98132 25.9098C10.5131 26.4421 11.0471 26.77 11.6762 27.0144C12.2851 27.2511 12.9808 27.4124 13.9995 27.4591C15.0204 27.5055 15.3464 27.5169 17.9455 27.5169C20.5451 27.5169 20.8703 27.5055 21.8912 27.4591C22.9101 27.4124 23.6064 27.2511 24.2153 27.0144C24.8446 26.77 25.3778 26.4421 25.9096 25.9098C26.4419 25.3778 26.769 24.8438 27.0142 24.2145C27.2495 23.6058 27.411 22.9101 27.4589 21.8916C27.5047 20.8707 27.5167 20.5452 27.5167 17.9459C27.5167 15.3466 27.5047 15.0204 27.4589 13.9995C27.411 12.9806 27.2495 12.2851 27.0142 11.6766C26.769 11.0471 26.4419 10.5131 25.9096 9.98112C25.3772 9.44874 24.8448 9.12173 24.2147 8.87747C23.6046 8.64079 22.9087 8.47948 21.8898 8.43282C20.8689 8.38637 20.5439 8.375 17.9437 8.375H17.9467ZM17.0881 10.0997C17.3429 10.0993 17.6273 10.0997 17.9467 10.0997C20.5021 10.0997 20.805 10.1089 21.8142 10.1548C22.7473 10.1974 23.2538 10.3534 23.5912 10.4844C24.0378 10.6578 24.3562 10.8652 24.691 11.2002C25.026 11.5352 25.2334 11.8542 25.4072 12.3009C25.5382 12.6378 25.6944 13.1443 25.7368 14.0775C25.7827 15.0864 25.7927 15.3895 25.7927 17.9437C25.7927 20.498 25.7827 20.801 25.7368 21.81C25.6942 22.7432 25.5382 23.2496 25.4072 23.5866C25.2338 24.0332 25.026 24.3513 24.691 24.6861C24.356 25.021 24.038 25.2284 23.5912 25.4019C23.2542 25.5335 22.7473 25.689 21.8142 25.7317C20.8052 25.7775 20.5021 25.7875 17.9467 25.7875C15.3911 25.7875 15.0882 25.7775 14.0792 25.7317C13.1461 25.6886 12.6396 25.5327 12.302 25.4017C11.8554 25.2282 11.5364 25.0208 11.2014 24.6859C10.8664 24.3509 10.659 24.0326 10.4852 23.5858C10.3542 23.2488 10.198 22.7424 10.1556 21.8092C10.1097 20.8003 10.1005 20.4972 10.1005 17.9413C10.1005 15.3855 10.1097 15.084 10.1556 14.0751C10.1982 13.1419 10.3542 12.6354 10.4852 12.2981C10.6586 11.8514 10.8664 11.5324 11.2014 11.1974C11.5364 10.8624 11.8554 10.6551 12.302 10.4812C12.6394 10.3496 13.1461 10.1941 14.0792 10.1512C14.9622 10.1113 15.3043 10.0993 17.0881 10.0973V10.0997ZM23.0556 11.6889C22.4215 11.6889 21.9071 12.2028 21.9071 12.837C21.9071 13.4711 22.4215 13.9855 23.0556 13.9855C23.6897 13.9855 24.2041 13.4711 24.2041 12.837C24.2041 12.203 23.6897 11.6889 23.0556 11.6889ZM17.9468 13.0308C15.2324 13.0308 13.0317 15.2316 13.0317 17.9459C13.0317 20.6603 15.2324 22.86 17.9468 22.86C20.6611 22.86 22.861 20.6603 22.861 17.9459C22.861 15.2316 20.6611 13.0308 17.9468 13.0308ZM17.9467 14.7556C19.7086 14.7556 21.137 16.1839 21.137 17.9459C21.137 19.7078 19.7086 21.1362 17.9467 21.1362C16.1847 21.1362 14.7564 19.7078 14.7564 17.9459C14.7564 16.1839 16.1847 14.7556 17.9467 14.7556Z" fill="#211842"/>
</svg>
