<svg width="33" height="33" viewBox="0 0 33 33" fill="none" xmlns="http://www.w3.org/2000/svg">
<g clip-path="url(#clip0_2343_769)">
<path d="M32.8574 16.5007V16.4927C32.8574 11.758 30.7961 7.50598 27.5228 4.58198L27.5068 4.56865C27.4663 4.5251 27.4212 4.48619 27.3721 4.45265L27.3694 4.45131C24.462 1.89901 20.7235 0.494809 16.8548 0.50198C12.8121 0.50198 9.12143 2.00331 6.30809 4.48065L6.32543 4.46598C6.29162 4.49183 6.26037 4.52085 6.23209 4.55265C4.54086 6.05029 3.18713 7.8915 2.26055 9.95176C1.33398 12.012 0.855711 14.2456 0.857426 16.5047C0.857426 21.238 2.91609 25.49 6.18676 28.4153L6.20276 28.4286C6.24531 28.4765 6.29267 28.5198 6.34409 28.558L6.34676 28.5593C9.25321 31.1082 12.989 32.5103 16.8548 32.5033C20.7386 32.5093 24.4904 31.0941 27.4028 28.5247L27.3854 28.5393C29.106 27.0434 30.4853 25.1953 31.4298 23.1202C32.3743 21.0451 32.8621 18.7913 32.8601 16.5113V16.502L32.8574 16.5007ZM26.9081 26.9073C26.1152 26.2666 25.2629 25.7032 24.3628 25.2246L24.2761 25.182C25.0934 22.826 25.5854 20.11 25.6321 17.2847V17.2633H31.3134C31.1224 20.9186 29.549 24.3647 26.9121 26.9033L26.9081 26.9073ZM17.6201 24.9007C19.3308 24.9927 20.9294 25.3687 22.4041 25.9807L22.3081 25.946C21.1268 28.6393 19.4641 30.49 17.6201 30.8967V24.9007ZM17.6201 23.3753V17.2633H24.1108C24.0591 19.7943 23.6203 22.3025 22.8094 24.7007L22.8614 24.526C21.2063 23.8446 19.4455 23.4558 17.6574 23.3766L17.6214 23.3753H17.6201ZM17.6201 15.738V9.62598C19.4564 9.54245 21.2641 9.14047 22.9628 8.43798L22.8574 8.47665C23.5974 10.6353 24.0521 13.1233 24.1108 15.71V15.738H17.6201ZM17.6201 8.10065V2.10731C19.4641 2.51398 21.1268 4.35665 22.3081 7.05798C20.9294 7.63132 19.3308 8.00598 17.6588 8.09932L17.6201 8.10065ZM21.4254 2.76731C22.997 3.29036 24.4665 4.08061 25.7694 5.10331L25.7388 5.07931C25.1481 5.54331 24.4854 5.98065 23.7868 6.36065L23.7121 6.39798C23.149 5.06485 22.3726 3.83228 21.4134 2.74865L21.4254 2.76331V2.76731ZM16.0921 2.11131V8.10065C14.4474 8.01685 12.8293 7.65156 11.3081 7.02065L11.4041 7.05532C12.5908 4.36198 14.2508 2.51265 16.0948 2.10598L16.0921 2.11131ZM10.0014 6.39398C9.27885 6.00481 8.59021 5.55568 7.94276 5.05131L7.97476 5.07531C9.23965 4.08258 10.6633 3.31082 12.1854 2.79265L12.2868 2.76198C11.3536 3.81696 10.5935 5.01312 10.0348 6.30598L10.0014 6.39398ZM16.0948 9.62465V15.7367H9.60409C9.66276 13.122 10.1174 10.634 10.9094 8.30065L10.8574 8.47532C12.5126 9.15333 14.272 9.54166 16.0588 9.62332L16.0948 9.62465ZM16.0948 17.262V23.374C14.2585 23.4575 12.4507 23.8595 10.7521 24.562L10.8574 24.5233C10.1174 22.366 9.66276 19.8767 9.60409 17.29V17.262H16.0948ZM16.0948 24.8993V30.8927C14.2508 30.486 12.5881 28.6433 11.4068 25.942C12.7854 25.3687 14.3841 24.9953 16.0561 24.902L16.0948 24.8993ZM12.2948 30.2327C10.7246 29.7088 9.25547 28.9206 7.95076 27.902L7.98276 27.926C8.57343 27.462 9.23609 27.0247 9.93476 26.6447L10.0094 26.6073C10.5683 27.9407 11.3447 29.1721 12.3068 30.2513L12.2948 30.238V30.2327ZM23.7134 26.606C24.4868 27.026 25.1494 27.462 25.7721 27.9487L25.7401 27.9247C24.4752 28.9174 23.0516 29.6892 21.5294 30.2073L21.4281 30.238C22.3611 29.1834 23.1212 27.9877 23.6801 26.6953L23.7134 26.6087V26.606ZM31.3134 15.738H25.6321C25.5904 12.9793 25.1143 10.2445 24.2214 7.63398L24.2761 7.81798C25.2179 7.32194 26.1096 6.73611 26.9388 6.06865L26.9068 6.09265C29.5392 8.621 31.1133 12.0547 31.3108 15.6993L31.3134 15.738ZM6.80676 6.09398C7.57476 6.71798 8.43743 7.28998 9.35209 7.77665L9.43876 7.81932C8.62143 10.1753 8.12943 12.8913 8.08276 15.7167V15.738H2.40009C2.59115 12.0827 4.16451 8.63661 6.80143 6.09798L6.80676 6.09398ZM2.40143 17.2633H8.08276C8.12445 20.022 8.60051 22.7568 9.49343 25.3673L9.43876 25.1833C8.43743 25.7153 7.57609 26.2873 6.77609 26.9327L6.80809 26.9087C4.17564 24.3803 2.60153 20.9466 2.40409 17.302L2.40276 17.2647L2.40143 17.2633Z" fill="#36314E"/>
</g>
<defs>
<clipPath id="clip0_2343_769">
<rect width="32" height="32" fill="white" transform="translate(0.857422 0.5)"/>
</clipPath>
</defs>
</svg>
